<?xml version="1.0" encoding="UTF-8"?>
<svg width="256px" height="256px" viewBox="0 0 256 256" version="1.1" xmlns="http://www.w3.org/2000/svg" xmlns:xlink="http://www.w3.org/1999/xlink">
    <!-- Generator: Sketch 52.3 (67297) - http://www.bohemiancoding.com/sketch -->
    <title>ICO-256/muzeum</title>
    <desc>Created with Sketch.</desc>
    <g id="ICO-256/muzeum" stroke="none" stroke-width="1" fill="none" fill-rule="evenodd">
        <g id="Group-12" transform="translate(0.000000, 32.000000)">
            <path d="M176,224 L176,136 C127.477,136 88,96.523 88,48 L0,48 C0,145.202 78.798,224 176,224" id="Fill-1" fill="#DCF5F8"></path>
            <path d="M43,4 L130,4 L130,112 L118,112 L118,83 C118,75.904 112.689,70.04 105.838,69.135 L105.838,35.919 C105.838,24.936 96.902,16 85.919,16 C74.936,16 66,24.936 66,35.919 L66,70.395 C59.753,71.538 55,77.012 55,83.583 L55,112 L43,112 L43,4 Z M101.838,78.064 L96,78.017 L96,37 C96,28.729 89.271,22 81,22 C79.798,22 78.634,22.157 77.513,22.426 C79.955,20.898 82.831,20 85.919,20 C94.696,20 101.838,27.142 101.838,35.919 L101.838,78.064 Z M70,48 L70,37 C70,30.935 74.935,26 81,26 C87.065,26 92,30.935 92,37 L92,48 C92,54.065 87.065,59 81,59 C74.935,59 70,54.065 70,48 Z M79,62.851 L79,70.165 L70,70.165 L70,58.164 C72.313,60.666 75.459,62.376 79,62.851 Z M95,89 L70,89 L70,74.165 L83,74.165 L83,62.851 C86.541,62.376 89.687,60.666 92,58.164 L92,81.983 L95,82.008 L95,89 Z M39,116 L134,116 L134,0 L39,0 L39,116 Z M72,129 L100,129 L100,124 L72,124 L72,129 Z M68,133 L104,133 L104,120 L68,120 L68,133 Z M177,164 L205,164 L205,159 L177,159 L177,164 Z M173,168 L209,168 L209,155 L173,155 L173,168 Z M169.739,87.178 C168.881,88.685 167.983,90.141 167.116,91.55 C163.49,97.434 160.065,102.991 160.065,111.06 C160.065,128.11 173.942,141.983 191,141.984 C208.058,141.983 221.935,128.11 221.935,111.06 C221.935,102.991 218.51,97.434 214.884,91.55 C214.017,90.141 213.119,88.685 212.261,87.178 C210.112,83.402 208.484,79.415 207.422,75.326 C205.937,69.61 207.268,63.575 210.97,59 L215.762,59 L215.762,55 L165.081,55 L165.081,59 L171.03,59 C174.732,63.575 176.062,69.61 174.578,75.326 C173.516,79.415 171.888,83.402 169.739,87.178 Z M152,146 L152,224 L156,224 L156,150 L225,150 L225,224 L229,224 L229,146 L152,146 Z" id="Fill-3" fill="#6B6BDB"></path>
            <polygon id="Fill-5" fill="#FFFFFF" points="55 97 118 97 118 93 55 93"></polygon>
            <path d="M170.0307,59 C171.0317,60.238 171.8627,61.582 172.5077,63 L209.4917,63 C210.1377,61.582 210.9677,60.238 211.9697,59 L170.0307,59 Z" id="Fill-7" fill="#FFFFFF"></path>
            <path d="M183.167,102 C181.788,102 180.667,103.121 180.667,104.5 C180.667,105.879 181.788,107 183.167,107 C184.546,107 185.667,105.879 185.667,104.5 C185.667,103.121 184.546,102 183.167,102 M183.167,111 C179.583,111 176.667,108.084 176.667,104.5 C176.667,100.916 179.583,98 183.167,98 C186.751,98 189.667,100.916 189.667,104.5 C189.667,108.084 186.751,111 183.167,111" id="Fill-8" fill="#FFFFFF"></path>
            <path d="M167.5,102 C166.121,102 165,103.121 165,104.5 C165,105.879 166.121,107 167.5,107 C168.879,107 170,105.879 170,104.5 C170,103.121 168.879,102 167.5,102 M167.5,111 C163.916,111 161,108.084 161,104.5 C161,100.916 163.916,98 167.5,98 C171.084,98 174,100.916 174,104.5 C174,108.084 171.084,111 167.5,111" id="Fill-9" fill="#FFFFFF"></path>
            <path d="M198.833,102 C197.454,102 196.333,103.121 196.333,104.5 C196.333,105.879 197.454,107 198.833,107 C200.212,107 201.333,105.879 201.333,104.5 C201.333,103.121 200.212,102 198.833,102 M198.833,111 C195.249,111 192.333,108.084 192.333,104.5 C192.333,100.916 195.249,98 198.833,98 C202.417,98 205.333,100.916 205.333,104.5 C205.333,108.084 202.417,111 198.833,111" id="Fill-10" fill="#FFFFFF"></path>
            <path d="M214.5,102 C213.121,102 212,103.121 212,104.5 C212,105.879 213.121,107 214.5,107 C215.879,107 217,105.879 217,104.5 C217,103.121 215.879,102 214.5,102 M214.5,111 C210.916,111 208,108.084 208,104.5 C208,100.916 210.916,98 214.5,98 C218.084,98 221,100.916 221,104.5 C221,108.084 218.084,111 214.5,111" id="Fill-11" fill="#FFFFFF"></path>
        </g>
    </g>
</svg>